<svg xmlns="http://www.w3.org/2000/svg" xmlns:xlink="http://www.w3.org/1999/xlink" xmlns:lucid="lucid" width="1185" height="780.34"><g transform="translate(-255 -340)" lucid:page-tab-id="0_0"><path d="M0 0h1870.4v1323.2H0z" fill="#fff"/><path d="M440 370c0-5.52 4.48-10 10-10h960c5.52 0 10 4.48 10 10v580c0 5.52-4.48 10-10 10H450c-5.52 0-10-4.48-10-10z" stroke="#0c7cba" stroke-width="2" fill-opacity="0"/><path d="M560 410c0-5.52 4.48-10 10-10h740c5.52 0 10 4.48 10 10v440c0 5.52-4.48 10-10 10H570c-5.52 0-10-4.48-10-10z" fill-opacity="0"/><path d="M562.5 410c0 1.38-1.12 2.5-2.5 2.5s-2.5-1.12-2.5-2.5 1.12-2.5 2.5-2.5 2.5 1.12 2.5 2.5zm10-10c0 1.38-1.12 2.5-2.5 2.5s-2.5-1.12-2.5-2.5 1.12-2.5 2.5-2.5 2.5 1.12 2.5 2.5zm20 0c0 1.38-1.12 2.5-2.5 2.5s-2.5-1.12-2.5-2.5 1.12-2.5 2.5-2.5 2.5 1.12 2.5 2.5zm20 0c0 1.38-1.12 2.5-2.5 2.5s-2.5-1.12-2.5-2.5 1.12-2.5 2.5-2.5 2.5 1.12 2.5 2.5zm20 0c0 1.38-1.12 2.5-2.5 2.5s-2.5-1.12-2.5-2.5 1.12-2.5 2.5-2.5 2.5 1.12 2.5 2.5zm20 0c0 1.38-1.12 2.5-2.5 2.5s-2.5-1.12-2.5-2.5 1.12-2.5 2.5-2.5 2.5 1.12 2.5 2.5zm20 0c0 1.38-1.12 2.5-2.5 2.5s-2.5-1.12-2.5-2.5 1.12-2.5 2.5-2.5 2.5 1.12 2.5 2.5zm20 0c0 1.38-1.12 2.5-2.5 2.5s-2.5-1.12-2.5-2.5 1.12-2.5 2.5-2.5 2.5 1.12 2.5 2.5zm20 0c0 1.38-1.12 2.5-2.5 2.5s-2.5-1.12-2.5-2.5 1.12-2.5 2.5-2.5 2.5 1.12 2.5 2.5zm20 0c0 1.38-1.12 2.5-2.5 2.5s-2.5-1.12-2.5-2.5 1.12-2.5 2.5-2.5 2.5 1.12 2.5 2.5zm20 0c0 1.38-1.12 2.5-2.5 2.5s-2.5-1.12-2.5-2.5 1.12-2.5 2.5-2.5 2.5 1.12 2.5 2.5zm20 0c0 1.38-1.12 2.5-2.5 2.5s-2.5-1.12-2.5-2.5 1.12-2.5 2.5-2.5 2.5 1.12 2.5 2.5zm20 0c0 1.38-1.12 2.5-2.5 2.5s-2.5-1.12-2.5-2.5 1.12-2.5 2.5-2.5 2.5 1.12 2.5 2.5zm20 0c0 1.38-1.12 2.5-2.5 2.5s-2.5-1.12-2.5-2.5 1.12-2.5 2.5-2.5 2.5 1.12 2.5 2.5zm20 0c0 1.38-1.12 2.5-2.5 2.5s-2.5-1.12-2.5-2.5 1.12-2.5 2.5-2.5 2.5 1.12 2.5 2.5zm20 0c0 1.38-1.12 2.5-2.5 2.5s-2.5-1.12-2.5-2.5 1.12-2.5 2.5-2.5 2.5 1.12 2.5 2.5zm20 0c0 1.38-1.12 2.5-2.5 2.5s-2.5-1.12-2.5-2.5 1.12-2.5 2.5-2.5 2.5 1.12 2.5 2.5zm20 0c0 1.38-1.12 2.5-2.5 2.5s-2.5-1.12-2.5-2.5 1.12-2.5 2.5-2.5 2.5 1.12 2.5 2.5zm20 0c0 1.38-1.12 2.5-2.5 2.5s-2.5-1.12-2.5-2.5 1.12-2.5 2.5-2.5 2.5 1.12 2.5 2.5zm20 0c0 1.38-1.12 2.5-2.5 2.5s-2.5-1.12-2.5-2.5 1.12-2.5 2.5-2.5 2.5 1.12 2.5 2.5zm20 0c0 1.38-1.12 2.5-2.5 2.5s-2.5-1.12-2.5-2.5 1.12-2.5 2.5-2.5 2.5 1.12 2.5 2.5zm20 0c0 1.38-1.12 2.5-2.5 2.5s-2.5-1.12-2.5-2.5 1.12-2.5 2.5-2.5 2.5 1.12 2.5 2.5zm20 0c0 1.38-1.12 2.5-2.5 2.5s-2.5-1.12-2.5-2.5 1.12-2.5 2.5-2.5 2.5 1.12 2.5 2.5zm20 0c0 1.38-1.12 2.5-2.5 2.5s-2.5-1.12-2.5-2.5 1.12-2.5 2.5-2.5 2.5 1.12 2.5 2.5zm20 0c0 1.38-1.12 2.5-2.5 2.5s-2.5-1.12-2.5-2.5 1.12-2.5 2.5-2.5 2.5 1.12 2.5 2.5zm20 0c0 1.38-1.12 2.5-2.5 2.5s-2.5-1.12-2.5-2.5 1.12-2.5 2.5-2.5 2.5 1.12 2.5 2.5zm20 0c0 1.38-1.12 2.5-2.5 2.5s-2.5-1.12-2.5-2.5 1.12-2.5 2.5-2.5 2.5 1.12 2.5 2.5zm20 0c0 1.38-1.12 2.5-2.5 2.5s-2.5-1.12-2.5-2.5 1.12-2.5 2.5-2.5 2.5 1.12 2.5 2.5zm20 0c0 1.38-1.12 2.5-2.5 2.5s-2.5-1.12-2.5-2.5 1.12-2.5 2.5-2.5 2.5 1.12 2.5 2.5zm20 0c0 1.38-1.12 2.5-2.5 2.5s-2.5-1.12-2.5-2.5 1.12-2.5 2.5-2.5 2.5 1.12 2.5 2.5zm20 0c0 1.38-1.12 2.5-2.5 2.5s-2.5-1.12-2.5-2.5 1.12-2.5 2.5-2.5 2.5 1.12 2.5 2.5zm20 0c0 1.38-1.12 2.5-2.5 2.5s-2.5-1.12-2.5-2.5 1.12-2.5 2.5-2.5 2.5 1.12 2.5 2.5zm20 0c0 1.38-1.12 2.5-2.5 2.5s-2.5-1.12-2.5-2.5 1.12-2.5 2.5-2.5 2.5 1.12 2.5 2.5zm20 0c0 1.38-1.12 2.5-2.5 2.5s-2.5-1.12-2.5-2.5 1.12-2.5 2.5-2.5 2.5 1.12 2.5 2.5zm20 0c0 1.38-1.12 2.5-2.5 2.5s-2.5-1.12-2.5-2.5 1.12-2.5 2.5-2.5 2.5 1.12 2.5 2.5zm20 0c0 1.38-1.12 2.5-2.5 2.5s-2.5-1.12-2.5-2.5 1.12-2.5 2.5-2.5 2.5 1.12 2.5 2.5zm20 0c0 1.38-1.12 2.5-2.5 2.5s-2.5-1.12-2.5-2.5 1.12-2.5 2.5-2.5 2.5 1.12 2.5 2.5zm20 0c0 1.38-1.12 2.5-2.5 2.5s-2.5-1.12-2.5-2.5 1.12-2.5 2.5-2.5 2.5 1.12 2.5 2.5zm20 0c0 1.38-1.12 2.5-2.5 2.5s-2.5-1.12-2.5-2.5 1.12-2.5 2.5-2.5 2.5 1.12 2.5 2.5zm10 10c0 1.38-1.12 2.5-2.5 2.5s-2.5-1.12-2.5-2.5 1.12-2.5 2.5-2.5 2.5 1.12 2.5 2.5zm0 20c0 1.38-1.12 2.5-2.5 2.5s-2.5-1.12-2.5-2.5 1.12-2.5 2.5-2.5 2.5 1.12 2.5 2.5zm0 20c0 1.38-1.12 2.5-2.5 2.5s-2.5-1.12-2.5-2.5 1.12-2.5 2.5-2.5 2.5 1.12 2.5 2.5zm0 20c0 1.38-1.12 2.5-2.5 2.5s-2.5-1.12-2.5-2.5 1.12-2.5 2.5-2.5 2.5 1.12 2.5 2.5zm0 20c0 1.38-1.12 2.5-2.5 2.5s-2.5-1.12-2.5-2.5 1.12-2.5 2.5-2.5 2.5 1.12 2.5 2.5zm0 20c0 1.38-1.12 2.5-2.5 2.5s-2.5-1.12-2.5-2.5 1.12-2.5 2.5-2.5 2.5 1.12 2.5 2.5zm0 20c0 1.38-1.12 2.5-2.5 2.5s-2.5-1.12-2.5-2.5 1.12-2.5 2.5-2.5 2.5 1.12 2.5 2.5zm0 20c0 1.38-1.12 2.5-2.5 2.5s-2.5-1.12-2.5-2.5 1.12-2.5 2.5-2.5 2.5 1.12 2.5 2.5zm0 20c0 1.38-1.12 2.5-2.5 2.5s-2.5-1.12-2.5-2.5 1.12-2.5 2.5-2.5 2.5 1.12 2.5 2.5zm0 20c0 1.38-1.12 2.5-2.5 2.5s-2.5-1.12-2.5-2.5 1.12-2.5 2.5-2.5 2.5 1.12 2.5 2.5zm0 20c0 1.38-1.12 2.5-2.5 2.5s-2.5-1.12-2.5-2.5 1.12-2.5 2.5-2.5 2.5 1.12 2.5 2.5zm0 20c0 1.38-1.12 2.5-2.5 2.5s-2.5-1.12-2.5-2.5 1.12-2.5 2.5-2.5 2.5 1.12 2.5 2.5zm0 20c0 1.38-1.12 2.5-2.5 2.5s-2.5-1.12-2.5-2.5 1.12-2.5 2.5-2.5 2.5 1.12 2.5 2.5zm0 20c0 1.38-1.12 2.5-2.5 2.5s-2.5-1.12-2.5-2.5 1.12-2.5 2.5-2.5 2.5 1.12 2.5 2.5zm0 20c0 1.38-1.12 2.5-2.5 2.5s-2.5-1.12-2.5-2.5 1.12-2.5 2.5-2.5 2.5 1.12 2.5 2.5zm0 20c0 1.38-1.12 2.5-2.5 2.5s-2.5-1.12-2.5-2.5 1.12-2.5 2.5-2.5 2.5 1.12 2.5 2.5zm0 20c0 1.38-1.12 2.5-2.5 2.5s-2.5-1.12-2.5-2.5 1.12-2.5 2.5-2.5 2.5 1.12 2.5 2.5zm0 20c0 1.38-1.12 2.5-2.5 2.5s-2.5-1.12-2.5-2.5 1.12-2.5 2.5-2.5 2.5 1.12 2.5 2.5zm0 20c0 1.38-1.12 2.5-2.5 2.5s-2.5-1.12-2.5-2.5 1.12-2.5 2.5-2.5 2.5 1.12 2.5 2.5zm0 20c0 1.38-1.12 2.5-2.5 2.5s-2.5-1.12-2.5-2.5 1.12-2.5 2.5-2.5 2.5 1.12 2.5 2.5zm0 20c0 1.38-1.12 2.5-2.5 2.5s-2.5-1.12-2.5-2.5 1.12-2.5 2.5-2.5 2.5 1.12 2.5 2.5zm0 20c0 1.38-1.12 2.5-2.5 2.5s-2.5-1.12-2.5-2.5 1.12-2.5 2.5-2.5 2.5 1.12 2.5 2.5zm0 20c0 1.38-1.12 2.5-2.5 2.5s-2.5-1.12-2.5-2.5 1.12-2.5 2.5-2.5 2.5 1.12 2.5 2.5zm-10 10c0 1.38-1.12 2.5-2.5 2.5s-2.5-1.12-2.5-2.5 1.12-2.5 2.5-2.5 2.5 1.12 2.5 2.5zm-20 0c0 1.38-1.12 2.5-2.5 2.5s-2.5-1.12-2.5-2.5 1.12-2.5 2.5-2.5 2.5 1.12 2.5 2.5zm-20 0c0 1.38-1.12 2.5-2.5 2.5s-2.5-1.12-2.5-2.5 1.12-2.5 2.5-2.5 2.5 1.12 2.5 2.5zm-20 0c0 1.38-1.12 2.5-2.5 2.5s-2.5-1.12-2.5-2.5 1.12-2.5 2.5-2.5 2.5 1.12 2.5 2.5zm-20 0c0 1.38-1.12 2.5-2.5 2.5s-2.5-1.12-2.5-2.5 1.12-2.5 2.5-2.5 2.5 1.12 2.5 2.5zm-20 0c0 1.38-1.12 2.5-2.5 2.5s-2.5-1.12-2.5-2.5 1.12-2.5 2.5-2.5 2.5 1.12 2.5 2.5zm-20 0c0 1.38-1.12 2.5-2.5 2.5s-2.5-1.12-2.5-2.5 1.12-2.5 2.5-2.5 2.5 1.12 2.5 2.5zm-20 0c0 1.38-1.12 2.5-2.5 2.5s-2.5-1.12-2.5-2.5 1.12-2.5 2.5-2.5 2.5 1.12 2.5 2.5zm-20 0c0 1.38-1.12 2.5-2.5 2.5s-2.5-1.12-2.5-2.5 1.12-2.5 2.5-2.5 2.5 1.12 2.5 2.5zm-20 0c0 1.38-1.12 2.5-2.5 2.5s-2.5-1.12-2.5-2.5 1.12-2.5 2.5-2.5 2.5 1.12 2.5 2.5zm-20 0c0 1.38-1.12 2.5-2.5 2.5s-2.5-1.12-2.5-2.5 1.12-2.5 2.5-2.5 2.5 1.12 2.5 2.5zm-20 0c0 1.38-1.12 2.5-2.5 2.5s-2.5-1.12-2.5-2.5 1.12-2.5 2.5-2.5 2.5 1.12 2.5 2.5zm-20 0c0 1.38-1.12 2.5-2.5 2.5s-2.5-1.12-2.5-2.5 1.12-2.5 2.5-2.5 2.5 1.12 2.5 2.5zm-20 0c0 1.38-1.12 2.5-2.5 2.5s-2.5-1.12-2.5-2.5 1.12-2.5 2.5-2.5 2.5 1.12 2.5 2.5zm-20 0c0 1.38-1.12 2.5-2.5 2.5s-2.5-1.12-2.5-2.5 1.12-2.5 2.5-2.5 2.5 1.12 2.5 2.5zm-20 0c0 1.38-1.12 2.5-2.5 2.5s-2.5-1.12-2.5-2.5 1.12-2.5 2.5-2.5 2.5 1.12 2.5 2.5zm-20 0c0 1.38-1.12 2.5-2.5 2.5s-2.5-1.12-2.5-2.5 1.12-2.5 2.5-2.5 2.5 1.12 2.5 2.5zm-20 0c0 1.38-1.12 2.5-2.5 2.5s-2.5-1.12-2.5-2.5 1.12-2.5 2.5-2.5 2.5 1.12 2.5 2.5zm-20 0c0 1.38-1.12 2.5-2.5 2.5s-2.5-1.12-2.5-2.5 1.12-2.5 2.5-2.5 2.5 1.12 2.5 2.5zm-20 0c0 1.38-1.12 2.5-2.5 2.5s-2.5-1.12-2.5-2.5 1.12-2.5 2.5-2.5 2.5 1.12 2.5 2.5zm-20 0c0 1.38-1.12 2.5-2.5 2.5s-2.5-1.12-2.5-2.5 1.12-2.5 2.5-2.5 2.5 1.12 2.5 2.5zm-20 0c0 1.38-1.12 2.5-2.5 2.5s-2.5-1.12-2.5-2.5 1.12-2.5 2.5-2.5 2.5 1.12 2.5 2.5zm-20 0c0 1.38-1.12 2.5-2.5 2.5s-2.5-1.12-2.5-2.5 1.12-2.5 2.5-2.5 2.5 1.12 2.5 2.5zm-20 0c0 1.38-1.12 2.5-2.5 2.5s-2.5-1.12-2.5-2.5 1.12-2.5 2.5-2.5 2.5 1.12 2.5 2.5zm-20 0c0 1.38-1.12 2.5-2.5 2.5s-2.5-1.12-2.5-2.5 1.12-2.5 2.5-2.5 2.5 1.12 2.5 2.5zm-20 0c0 1.38-1.12 2.5-2.5 2.5s-2.5-1.12-2.5-2.5 1.12-2.5 2.5-2.5 2.5 1.12 2.5 2.5zm-20 0c0 1.38-1.12 2.5-2.5 2.5s-2.5-1.12-2.5-2.5 1.12-2.5 2.5-2.5 2.5 1.12 2.5 2.5zm-20 0c0 1.38-1.12 2.5-2.5 2.5s-2.5-1.12-2.5-2.5 1.12-2.5 2.5-2.5 2.5 1.12 2.5 2.5zm-20 0c0 1.38-1.12 2.5-2.5 2.5s-2.5-1.12-2.5-2.5 1.12-2.5 2.5-2.5 2.5 1.12 2.5 2.5zm-20 0c0 1.38-1.12 2.5-2.5 2.5s-2.5-1.12-2.5-2.5 1.12-2.5 2.5-2.5 2.5 1.12 2.5 2.5zm-20 0c0 1.38-1.12 2.5-2.5 2.5s-2.5-1.12-2.5-2.5 1.12-2.5 2.5-2.5 2.5 1.12 2.5 2.5zm-20 0c0 1.38-1.12 2.5-2.5 2.5s-2.5-1.12-2.5-2.5 1.12-2.5 2.5-2.5 2.5 1.12 2.5 2.5zm-20 0c0 1.38-1.12 2.5-2.5 2.5s-2.5-1.12-2.5-2.5 1.12-2.5 2.5-2.5 2.5 1.12 2.5 2.5zm-20 0c0 1.38-1.12 2.5-2.5 2.5s-2.5-1.12-2.5-2.5 1.12-2.5 2.5-2.5 2.5 1.12 2.5 2.5zm-20 0c0 1.38-1.12 2.5-2.5 2.5s-2.5-1.12-2.5-2.5 1.12-2.5 2.5-2.5 2.5 1.12 2.5 2.5zm-20 0c0 1.38-1.12 2.5-2.5 2.5s-2.5-1.12-2.5-2.5 1.12-2.5 2.5-2.5 2.5 1.12 2.5 2.5zm-20 0c0 1.38-1.12 2.5-2.5 2.5s-2.5-1.12-2.5-2.5 1.12-2.5 2.5-2.5 2.5 1.12 2.5 2.5zm-20 0c0 1.38-1.12 2.5-2.5 2.5s-2.5-1.12-2.5-2.5 1.12-2.5 2.5-2.5 2.5 1.12 2.5 2.5zm-10-10c0 1.38-1.12 2.5-2.5 2.5s-2.5-1.12-2.5-2.5 1.12-2.5 2.5-2.5 2.5 1.12 2.5 2.5zm0-20c0 1.38-1.12 2.5-2.5 2.5s-2.5-1.12-2.5-2.5 1.12-2.5 2.5-2.5 2.5 1.12 2.5 2.5zm0-20c0 1.38-1.12 2.5-2.5 2.5s-2.5-1.12-2.5-2.5 1.12-2.5 2.5-2.5 2.5 1.12 2.5 2.5zm0-20c0 1.38-1.12 2.5-2.5 2.5s-2.5-1.12-2.5-2.5 1.12-2.5 2.5-2.5 2.5 1.12 2.5 2.5zm0-20c0 1.38-1.12 2.5-2.5 2.5s-2.5-1.12-2.5-2.5 1.12-2.5 2.5-2.5 2.5 1.12 2.5 2.5zm0-20c0 1.38-1.12 2.5-2.5 2.5s-2.5-1.12-2.5-2.5 1.12-2.5 2.5-2.5 2.5 1.12 2.5 2.5zm0-20c0 1.38-1.12 2.5-2.5 2.5s-2.5-1.12-2.5-2.5 1.12-2.5 2.5-2.5 2.5 1.12 2.5 2.5zm0-20c0 1.38-1.12 2.5-2.5 2.5s-2.5-1.12-2.5-2.5 1.12-2.5 2.5-2.5 2.5 1.12 2.5 2.5zm0-20c0 1.38-1.12 2.5-2.5 2.5s-2.5-1.12-2.5-2.5 1.12-2.5 2.5-2.5 2.5 1.12 2.5 2.5zm0-20c0 1.38-1.12 2.5-2.5 2.5s-2.5-1.12-2.5-2.5 1.12-2.5 2.5-2.5 2.5 1.12 2.5 2.5zm0-20c0 1.38-1.12 2.5-2.5 2.5s-2.5-1.12-2.5-2.5 1.12-2.5 2.5-2.5 2.5 1.12 2.5 2.5zm0-20c0 1.38-1.12 2.5-2.5 2.5s-2.5-1.12-2.5-2.5 1.12-2.5 2.5-2.5 2.5 1.12 2.5 2.5zm0-20c0 1.38-1.12 2.5-2.5 2.5s-2.5-1.12-2.5-2.5 1.12-2.5 2.5-2.5 2.5 1.12 2.5 2.5zm0-20c0 1.38-1.12 2.5-2.5 2.5s-2.5-1.12-2.5-2.5 1.12-2.5 2.5-2.5 2.5 1.12 2.5 2.5zm0-20c0 1.38-1.12 2.5-2.5 2.5s-2.5-1.12-2.5-2.5 1.12-2.5 2.5-2.5 2.5 1.12 2.5 2.5zm0-20c0 1.38-1.12 2.5-2.5 2.5s-2.5-1.12-2.5-2.5 1.12-2.5 2.5-2.5 2.5 1.12 2.5 2.5zm0-20c0 1.38-1.12 2.5-2.5 2.5s-2.5-1.12-2.5-2.5 1.12-2.5 2.5-2.5 2.5 1.12 2.5 2.5zm0-20c0 1.38-1.12 2.5-2.5 2.5s-2.5-1.12-2.5-2.5 1.12-2.5 2.5-2.5 2.5 1.12 2.5 2.5zm0-20c0 1.38-1.12 2.5-2.5 2.5s-2.5-1.12-2.5-2.5 1.12-2.5 2.5-2.5 2.5 1.12 2.5 2.5zm0-20c0 1.38-1.12 2.5-2.5 2.5s-2.5-1.12-2.5-2.5 1.12-2.5 2.5-2.5 2.5 1.12 2.5 2.5zm0-20c0 1.38-1.12 2.5-2.5 2.5s-2.5-1.12-2.5-2.5 1.12-2.5 2.5-2.5 2.5 1.12 2.5 2.5zm0-20c0 1.38-1.12 2.5-2.5 2.5s-2.5-1.12-2.5-2.5 1.12-2.5 2.5-2.5 2.5 1.12 2.5 2.5z" fill="#0c7cba"/><path d="M675 519c0-5.52 4.48-10 10-10h505c5.52 0 10 4.48 10 10v229c0 5.52-4.48 10-10 10H685c-5.52 0-10-4.48-10-10z" fill-opacity="0"/><path d="M677.5 519c0 1.38-1.12 2.5-2.5 2.5s-2.5-1.12-2.5-2.5 1.12-2.5 2.5-2.5 2.5 1.12 2.5 2.5zm10-10c0 1.38-1.12 2.5-2.5 2.5s-2.5-1.12-2.5-2.5 1.12-2.5 2.5-2.5 2.5 1.12 2.5 2.5zm20.2 0c0 1.38-1.12 2.5-2.5 2.5s-2.5-1.12-2.5-2.5 1.12-2.5 2.5-2.5 2.5 1.12 2.5 2.5zm20.2 0c0 1.38-1.12 2.5-2.5 2.5s-2.5-1.12-2.5-2.5 1.12-2.5 2.5-2.5 2.5 1.12 2.5 2.5zm20.2 0c0 1.38-1.12 2.5-2.5 2.5s-2.5-1.12-2.5-2.5 1.12-2.5 2.5-2.5 2.5 1.12 2.5 2.5zm20.2 0c0 1.38-1.12 2.5-2.5 2.5s-2.5-1.12-2.5-2.5 1.12-2.5 2.5-2.5 2.5 1.12 2.5 2.5zm20.2 0c0 1.38-1.12 2.5-2.5 2.5s-2.5-1.12-2.5-2.5 1.12-2.5 2.5-2.5 2.5 1.12 2.5 2.5zm20.2 0c0 1.38-1.12 2.5-2.5 2.5s-2.5-1.12-2.5-2.5 1.12-2.5 2.5-2.5 2.5 1.12 2.5 2.5zm20.2 0c0 1.38-1.12 2.5-2.5 2.5s-2.5-1.12-2.5-2.5 1.12-2.5 2.5-2.5 2.5 1.12 2.5 2.5zm20.2 0c0 1.38-1.12 2.5-2.5 2.5s-2.5-1.12-2.5-2.5 1.12-2.5 2.5-2.5 2.5 1.12 2.5 2.5zm20.2 0c0 1.38-1.12 2.5-2.5 2.5s-2.5-1.12-2.5-2.5 1.12-2.5 2.5-2.5 2.5 1.12 2.5 2.5zm20.2 0c0 1.38-1.12 2.5-2.5 2.5s-2.5-1.12-2.5-2.5 1.12-2.5 2.5-2.5 2.5 1.12 2.5 2.5zm20.2 0c0 1.38-1.12 2.5-2.5 2.5s-2.5-1.12-2.5-2.5 1.12-2.5 2.5-2.5 2.5 1.12 2.5 2.5zm20.2 0c0 1.38-1.12 2.5-2.5 2.5s-2.5-1.12-2.5-2.5 1.12-2.5 2.5-2.5 2.5 1.12 2.5 2.5zm20.2 0c0 1.38-1.12 2.5-2.5 2.5s-2.5-1.12-2.5-2.5 1.12-2.5 2.5-2.5 2.5 1.12 2.5 2.5zm20.2 0c0 1.38-1.12 2.5-2.5 2.5s-2.5-1.12-2.5-2.5 1.12-2.5 2.5-2.5 2.5 1.12 2.5 2.5zm20.2 0c0 1.38-1.12 2.5-2.5 2.5s-2.5-1.12-2.5-2.5 1.12-2.5 2.5-2.5 2.5 1.12 2.5 2.5zm20.2 0c0 1.38-1.12 2.5-2.5 2.5s-2.5-1.12-2.5-2.5 1.12-2.5 2.5-2.5 2.5 1.12 2.5 2.5zm20.2 0c0 1.38-1.12 2.5-2.5 2.5s-2.5-1.12-2.5-2.5 1.12-2.5 2.5-2.5 2.5 1.12 2.5 2.5zm20.2 0c0 1.38-1.12 2.5-2.5 2.5s-2.5-1.12-2.5-2.5 1.12-2.5 2.5-2.5 2.5 1.12 2.5 2.5zm20.2 0c0 1.38-1.12 2.5-2.5 2.5s-2.5-1.12-2.5-2.5 1.12-2.5 2.5-2.5 2.5 1.12 2.5 2.5zm20.2 0c0 1.38-1.12 2.5-2.5 2.5s-2.5-1.12-2.5-2.5 1.12-2.5 2.5-2.5 2.5 1.12 2.5 2.5zm20.2 0c0 1.38-1.12 2.5-2.5 2.5s-2.5-1.12-2.5-2.5 1.12-2.5 2.5-2.5 2.5 1.12 2.5 2.5zm20.2 0c0 1.38-1.12 2.5-2.5 2.5s-2.5-1.12-2.5-2.5 1.12-2.5 2.5-2.5 2.5 1.12 2.5 2.5zm20.2 0c0 1.38-1.12 2.5-2.5 2.5s-2.5-1.12-2.5-2.5 1.12-2.5 2.5-2.5 2.5 1.12 2.5 2.5zm20.2 0c0 1.38-1.12 2.5-2.5 2.5s-2.5-1.12-2.5-2.5 1.12-2.5 2.5-2.5 2.5 1.12 2.5 2.5zm20.2 0c0 1.38-1.12 2.5-2.5 2.5s-2.5-1.12-2.5-2.5 1.12-2.5 2.5-2.5 2.5 1.12 2.5 2.5zm10 10c0 1.38-1.12 2.5-2.5 2.5s-2.5-1.12-2.5-2.5 1.12-2.5 2.5-2.5 2.5 1.12 2.5 2.5zm0 20.82c0 1.38-1.12 2.5-2.5 2.5s-2.5-1.12-2.5-2.5 1.12-2.5 2.5-2.5 2.5 1.12 2.5 2.5zm0 20.82c0 1.38-1.12 2.5-2.5 2.5s-2.5-1.12-2.5-2.5 1.12-2.5 2.5-2.5 2.5 1.12 2.5 2.5zm0 20.8c0 1.4-1.12 2.5-2.5 2.5s-2.5-1.1-2.5-2.5c0-1.37 1.12-2.5 2.5-2.5s2.5 1.13 2.5 2.5zm0 20.83c0 1.38-1.12 2.5-2.5 2.5s-2.5-1.12-2.5-2.5 1.12-2.5 2.5-2.5 2.5 1.12 2.5 2.5zm0 20.82c0 1.37-1.12 2.5-2.5 2.5s-2.5-1.13-2.5-2.5c0-1.4 1.12-2.5 2.5-2.5s2.5 1.1 2.5 2.5zm0 20.8c0 1.4-1.12 2.5-2.5 2.5s-2.5-1.1-2.5-2.5c0-1.37 1.12-2.5 2.5-2.5s2.5 1.13 2.5 2.5zm0 20.83c0 1.38-1.12 2.5-2.5 2.5s-2.5-1.12-2.5-2.5 1.12-2.5 2.5-2.5 2.5 1.12 2.5 2.5zm0 20.82c0 1.38-1.12 2.5-2.5 2.5s-2.5-1.12-2.5-2.5c0-1.4 1.12-2.5 2.5-2.5s2.5 1.1 2.5 2.5zm0 20.8c0 1.4-1.12 2.5-2.5 2.5s-2.5-1.1-2.5-2.5c0-1.37 1.12-2.5 2.5-2.5s2.5 1.13 2.5 2.5zm0 20.83c0 1.38-1.12 2.5-2.5 2.5s-2.5-1.12-2.5-2.5 1.12-2.5 2.5-2.5 2.5 1.12 2.5 2.5zm0 20.82c0 1.38-1.12 2.5-2.5 2.5s-2.5-1.12-2.5-2.5 1.12-2.5 2.5-2.5 2.5 1.12 2.5 2.5zm-10 10c0 1.38-1.12 2.5-2.5 2.5s-2.5-1.12-2.5-2.5 1.12-2.5 2.5-2.5 2.5 1.12 2.5 2.5zm-20.2 0c0 1.38-1.12 2.5-2.5 2.5s-2.5-1.12-2.5-2.5 1.12-2.5 2.5-2.5 2.5 1.12 2.5 2.5zm-20.2 0c0 1.38-1.12 2.5-2.5 2.5s-2.5-1.12-2.5-2.5 1.12-2.5 2.5-2.5 2.5 1.12 2.5 2.5zm-20.2 0c0 1.38-1.12 2.5-2.5 2.5s-2.5-1.12-2.5-2.5 1.12-2.5 2.5-2.5 2.5 1.12 2.5 2.5zm-20.2 0c0 1.38-1.12 2.5-2.5 2.5s-2.5-1.12-2.5-2.5 1.12-2.5 2.5-2.5 2.5 1.12 2.5 2.5zm-20.2 0c0 1.38-1.12 2.5-2.5 2.5s-2.5-1.12-2.5-2.5 1.12-2.5 2.5-2.5 2.5 1.12 2.5 2.5zm-20.2 0c0 1.38-1.12 2.5-2.5 2.5s-2.5-1.12-2.5-2.5 1.12-2.5 2.5-2.5 2.5 1.12 2.5 2.5zm-20.2 0c0 1.38-1.12 2.5-2.5 2.5s-2.5-1.12-2.5-2.5 1.12-2.5 2.5-2.5 2.5 1.12 2.5 2.5zm-20.2 0c0 1.38-1.12 2.5-2.5 2.5s-2.5-1.12-2.5-2.5 1.12-2.5 2.5-2.5 2.5 1.12 2.5 2.5zm-20.2 0c0 1.38-1.12 2.5-2.5 2.5s-2.5-1.12-2.5-2.5 1.12-2.5 2.5-2.5 2.5 1.12 2.5 2.5zm-20.2 0c0 1.38-1.12 2.5-2.5 2.5s-2.5-1.12-2.5-2.5 1.12-2.5 2.5-2.5 2.5 1.12 2.5 2.5zm-20.2 0c0 1.38-1.12 2.5-2.5 2.5s-2.5-1.12-2.5-2.5 1.12-2.5 2.5-2.5 2.5 1.12 2.5 2.5zm-20.2 0c0 1.38-1.12 2.5-2.5 2.5s-2.5-1.12-2.5-2.5 1.12-2.5 2.5-2.5 2.5 1.12 2.5 2.5zm-20.2 0c0 1.38-1.12 2.5-2.5 2.5s-2.5-1.12-2.5-2.5 1.12-2.5 2.5-2.5 2.5 1.12 2.5 2.5zm-20.2 0c0 1.38-1.12 2.5-2.5 2.5s-2.5-1.12-2.5-2.5 1.12-2.5 2.5-2.5 2.5 1.12 2.5 2.5zm-20.2 0c0 1.38-1.12 2.5-2.5 2.5s-2.5-1.12-2.5-2.5 1.12-2.5 2.5-2.5 2.5 1.12 2.5 2.5zm-20.2 0c0 1.38-1.12 2.5-2.5 2.5s-2.5-1.12-2.5-2.5 1.12-2.5 2.5-2.5 2.5 1.12 2.5 2.5zm-20.2 0c0 1.38-1.12 2.5-2.5 2.5s-2.5-1.12-2.5-2.5 1.12-2.5 2.5-2.5 2.5 1.12 2.5 2.5zm-20.2 0c0 1.38-1.12 2.5-2.5 2.5s-2.5-1.12-2.5-2.5 1.12-2.5 2.5-2.5 2.5 1.12 2.5 2.5zm-20.2 0c0 1.38-1.12 2.5-2.5 2.5s-2.5-1.12-2.5-2.5 1.12-2.5 2.5-2.5 2.5 1.12 2.5 2.5zm-20.2 0c0 1.38-1.12 2.5-2.5 2.5s-2.5-1.12-2.5-2.5 1.12-2.5 2.5-2.5 2.5 1.12 2.5 2.5zm-20.2 0c0 1.38-1.12 2.5-2.5 2.5s-2.5-1.12-2.5-2.5 1.12-2.5 2.5-2.5 2.5 1.12 2.5 2.5zm-20.2 0c0 1.38-1.12 2.5-2.5 2.5s-2.5-1.12-2.5-2.5 1.12-2.5 2.5-2.5 2.5 1.12 2.5 2.5zm-20.2 0c0 1.38-1.12 2.5-2.5 2.5s-2.5-1.12-2.5-2.5 1.12-2.5 2.5-2.5 2.5 1.12 2.5 2.5zm-20.2 0c0 1.38-1.12 2.5-2.5 2.5s-2.5-1.12-2.5-2.5 1.12-2.5 2.5-2.5 2.5 1.12 2.5 2.5zm-20.2 0c0 1.38-1.12 2.5-2.5 2.5s-2.5-1.12-2.5-2.5 1.12-2.5 2.5-2.5 2.5 1.12 2.5 2.5zm-10-10c0 1.38-1.12 2.5-2.5 2.5s-2.5-1.12-2.5-2.5 1.12-2.5 2.5-2.5 2.5 1.12 2.5 2.5zm0-20.82c0 1.38-1.12 2.5-2.5 2.5s-2.5-1.12-2.5-2.5 1.12-2.5 2.5-2.5 2.5 1.12 2.5 2.5zm0-20.82c0 1.38-1.12 2.5-2.5 2.5s-2.5-1.12-2.5-2.5 1.12-2.5 2.5-2.5 2.5 1.12 2.5 2.5zm0-20.8c0 1.37-1.12 2.5-2.5 2.5s-2.5-1.13-2.5-2.5c0-1.4 1.12-2.5 2.5-2.5s2.5 1.1 2.5 2.5zm0-20.83c0 1.38-1.12 2.5-2.5 2.5s-2.5-1.12-2.5-2.5 1.12-2.5 2.5-2.5 2.5 1.12 2.5 2.5zm0-20.82c0 1.4-1.12 2.5-2.5 2.5s-2.5-1.1-2.5-2.5c0-1.37 1.12-2.5 2.5-2.5s2.5 1.13 2.5 2.5zm0-20.8c0 1.37-1.12 2.5-2.5 2.5s-2.5-1.13-2.5-2.5c0-1.4 1.12-2.5 2.5-2.5s2.5 1.1 2.5 2.5zm0-20.83c0 1.38-1.12 2.5-2.5 2.5s-2.5-1.12-2.5-2.5 1.12-2.5 2.5-2.5 2.5 1.12 2.5 2.5zm0-20.82c0 1.4-1.12 2.5-2.5 2.5s-2.5-1.1-2.5-2.5c0-1.38 1.12-2.5 2.5-2.5s2.5 1.12 2.5 2.5zm0-20.8c0 1.37-1.12 2.5-2.5 2.5s-2.5-1.13-2.5-2.5c0-1.4 1.12-2.5 2.5-2.5s2.5 1.1 2.5 2.5zm0-20.83c0 1.38-1.12 2.5-2.5 2.5s-2.5-1.12-2.5-2.5 1.12-2.5 2.5-2.5 2.5 1.12 2.5 2.5zm0-20.82c0 1.38-1.12 2.5-2.5 2.5s-2.5-1.12-2.5-2.5 1.12-2.5 2.5-2.5 2.5 1.12 2.5 2.5z" fill="#0c7cba"/><path d="M674.58 756.9c.6-.6.48-1.62 0-2.27l-2.88-3-12.9-13.16c-.6-.6-1.44-.6-2.04 0-.6.6-.72 1.62 0 2.27l13.5 13.9c.6.64.6 1.65 0 2.26l-13.74 14.44c-.6.6-.6 1.62 0 2.23.6.65 1.56.5 2.04 0l12.78-13.3.12-.1 3.12-3.27zM615.42 756.9c-.6-.6-.48-1.62 0-2.27l2.88-3 12.9-13.16c.6-.6 1.44-.6 2.04 0 .6.6.72 1.62 0 2.27l-13.26 13.9c-.6.64-.6 1.65 0 2.26l13.5 14.44c.6.6.6 1.62 0 2.23-.6.65-1.56.5-2.04 0l-13.02-13.14-.12-.15-2.88-3.38z" stroke="#000" stroke-opacity="0" fill="#3999c6"/><path d="M636.84 755.78c0 2.38-1.92 4.14-3.96 4.14s-4.2-2-4.2-4.14c0-2.16 1.68-4.14 4.2-4.14 2.4 0 3.96 1.98 3.96 4.14zM648.96 755.78c0 2.38-1.92 4.14-3.96 4.14s-4.2-2-4.2-4.14c0-2.16 1.92-4.14 4.2-4.14 2.28 0 3.96 1.98 3.96 4.14zM661.2 755.78c0 2.27-1.8 4.14-3.96 4.14-2.22 0-3.96-1.87-3.96-4.14 0-2.3 1.74-4.14 3.96-4.14 2.16 0 3.96 1.84 3.96 4.14z" stroke="#000" stroke-opacity="0" fill="#0072c6"/><path d="M863 576.02h-13.75c1.65 5.98-.55 6.85-10.25 6.85V586h33v-3.13c-9.7 0-10.65-.87-9-6.85" stroke="#000" stroke-opacity="0" fill="#7a7a7a"/><path d="M877 540h-44.3c-1.5 0-2.7 1.33-2.7 2.85v31.33c0 1.47 1.2 2.8 2.7 2.8H877c1.5 0 3-1.33 3-2.8v-31.33c0-1.52-1.5-2.85-3-2.85" stroke="#000" stroke-opacity="0" fill="#a0a1a2"/><path d="M877 540h-44.3c-1.5 0-2.7 1.33-2.7 2.85v31.33c0 1.47 1.2 2.8 2.7 2.8h1.05L877 540z" stroke="#000" stroke-opacity="0" fill="#fff" fill-opacity=".2"/><path d="M876 544v28.98h-42V544h42z" stroke="#000" stroke-opacity="0" fill="#59b4d9"/><path d="M839 583h33v3h-33v-3z" stroke="#000" stroke-opacity="0" fill="#a0a1a2"/><path d="M855.5 542.12c0 .36-.3.7-.7.7-.4 0-.7-.34-.7-.7 0-.42.3-.74.7-.74.4 0 .7.32.7.74" stroke="#000" stroke-opacity="0" fill="#b8d432"/><path d="M856.7 551.82l-.5.32-.45-.78c-.15-.32-.2-.6-.1-.87.1-.24.3-.38.6-.38h.05c.25.05.55.32.65.6.1.27.1.92-.25 1.1z" stroke="#000" stroke-opacity="0" fill="#fff" fill-opacity=".4"/><path d="M851.75 567.37c0-.05-2.55-4.1-2.4-4.83 1.2-5.66 2.6-6.5 3.15-7.68.5-1.2.2-2.3.8-2.35.65 0 2.45.15 2.9.3.45.13 1.1.6 1.45 1.6.45.87.9 1.75 1.05 2.8.05.1.05.2.15.23 1.15 1.3 1.4 2.9 1.3 4.56 0 .4-.05 1.05-.1 1.28-.05.18-1.65 5.38-4.2 5.3-2.5-.06-3.8-1.03-4.1-1.2z" stroke="#000" stroke-opacity="0" fill="#fbfbf9" fill-opacity=".85"/><path d="M865.25 566.13c-.95-.05-1.45-.6-1.45-1.1 0-.65.3-1.4-.6-1.48-.9-.1-2.75-.18-3.25-.27-1.05-.2-1.1.23-1.15.55 0 .14.15 1.6 0 2.16 0 .22 0 .5-.05.73-.1.64-.15 1.33-.25 1.97v.97c.75 1.15 2.25 1.2 3.2.23.9-.92 1.95-1.52 3.05-2.07.35-.14.65-.37.8-.83.15-.46 0-.83-.3-.87z" stroke="#000" stroke-opacity="0" fill="#ff8c00" fill-opacity=".85"/><path d="M853 565.58c-.1.64-.8 1.2-1.15 1.15-.2-.14-.8-.92-.9-1.1-.4-.56-2.05-2.95-2.55-2.77-.15 0-.25.14-.3.23-.05 0-.1.04-.1.04-.25-.55-.25-1.06.05-1.57.6-1.15.9-2.3 1.2-3.54.1-.4.35-.73.6-1.1.5-.6.5-1.24 1-1.84.3-.43.6-.84.55-1.35-.05-1.42-.25-2.85-.2-4.27.05-1.43 1.3-2.63 2.7-3.13 1.4-.5 2.8-.23 3.95.78.9.83 1.3 1.9 1.35 3.08 0 .2.05.43 0 .66-.1 2.25.85 4.1 2.3 5.7 1.35 1.56 1.9 3.45 2.05 5.47 0 .56-.15 1.02-.4 1.52-.3.7-.7 1.1-1.1 1.3-.4.17-1.95.27-1.65-.75.15-.5.15-.7-.45-.82l.15-1.25c.1-1.7-.2-3-1.5-4.18-.35-.37 0-.46 0-.78-.05-.88-.55-1.8-1.05-2.67-.05-.2-.1-.32-.25-.46.05-.14-.05-.23-.1-.32.1-.28.2-.56.15-.88 0-.27-2.65-.37-3-.23-.15-.03-1.55-.13-1.55-.08-.2.14-.35.32-.4.55-.05.23.3.7.35.74-.05.33-.05.6-.05.93-.05.1-.1.23-.1.32-.25.37-.45.7-.7 1.06-.2.33-.4.65-.45 1.02-.15.4.4.92-.1 1.38-.5.5-1 2.7-1 3.27 0 .55 1 1.88 1.4 2.25.75.7 1.4.97 1.25 1.66zM852.5 567.74c1.1.32 4.1.4 5.6-1.06.25-.23.45-.46.7-.7.05.24 0 .47 0 .75-.15.64-.2 1.33-.3 1.97v.97c-1.35-.37-3.4-.5-4-.46-.6.06-1.45.2-1.95.33l-.05-1.8z" stroke="#000" stroke-opacity="0" fill="#1e1e1e" fill-opacity=".85"/><path d="M863.9 565.16s-.05-.04-.05-.1c0 .06.05.1.05.1zM863.5 563.78c0-.04-.05-.04-.1-.1.05.06.1.06.1.1z" stroke="#000" stroke-opacity="0" fill="#dda516" fill-opacity=".85"/><path d="M851.9 566.82c0 .04 0 .04.05.1-.05-.06-.05-.06-.05-.1z" stroke="#000" stroke-opacity="0" fill="#8c5f07" fill-opacity=".85"/><path d="M863.4 563.7z" stroke="#000" stroke-opacity="0" fill="#e3a906" fill-opacity=".85"/><path d="M851.45 566.17c-.8-.78-1.4-1.8-1.95-2.9-.3-.6-1.15-1.05-1.5-.13-.35.92-.85 1.3-1.75 1.2-.6-.1-1.2.36-.95 1.2.3.82.6 1.5 0 2.1-.65.6-.35 1.25.5 1.34.9.14 3.2.64 4.55 1.38 1.3.7 2.4-.64 2.5-1.06.35-.96-.6-2.3-1.4-3.13z" stroke="#000" stroke-opacity="0" fill="#ff8c00" fill-opacity=".85"/><path d="M854.4 556.6c-.75 0-1.25-.68-1.6-1.28 0 0-1.15-1.66-.7-2.53.05-.15.15-.38 1.35-1.12l.2-.18.2-.1.15-.04c.15-.04.35-.14.55-.14h.05l.15.05.35.14 2.9 1.07.1.46c.05.32 0 .64-.1.87l-.1.4-.25.1c-.2.1-.55.47-.85.8-.25.26-.5.54-.8.72-.1.05-.2.14-.3.2-.4.3-.8.6-1.3.6z" stroke="#000" stroke-opacity="0" fill="#1e1e1e" fill-opacity=".85"/><path d="M856.35 553.06c-.5.46-1.1.83-1.8.83-.05.04-.05.04 0 0 0-.15-.05-.33-.15-.42-.15-.1-.15-.28-.1-.37.1-.54.05-1.05.05-1.6-.15-.05-.45.1-.5.1-.05.04-.1.04-.2.08-.05.05-.1.14-.2.2-.1.03-1.05.63-1.15.86-.3.55.55 1.9.7 2.07 1 1.76 1.55.98 2.5.33.5-.32 1.15-1.33 1.7-1.5.1-.3.2-.57.15-.9-.35.06-.65.06-1 .33z" stroke="#000" stroke-opacity="0" fill="#ff8c00" fill-opacity=".85"/><path d="M853.95 551.5z" stroke="#000" stroke-opacity="0" fill="#e3a906" fill-opacity=".85"/><path d="M856.95 552.33c.2.14.4.27.4.55-.4 0-.75.05-1.1.32-.55.5-1.3 1.24-2.1 1.24 0-.27-.35-.64-.25-1.1.15-.55.15-1.24.15-1.84.4-.14.75 0 1.05.1l.45.27.75.27c.2.14.4.14.65.2z" stroke="#000" stroke-opacity="0" fill="#fcd116" fill-opacity=".85"/><path d="M853 550.53h1v1.02h-1v-1.02zM856 550.53h1v1.02h-1v-1.02z" stroke="#000" stroke-opacity="0" fill="#fff" fill-opacity=".9"/><path d="M945 688h240v60H945z" fill="none"/><use xlink:href="#a" transform="matrix(1,0,0,1,945,688) translate(79.07499999999999 33.6)"/><use xlink:href="#b" transform="matrix(1,0,0,1,945,688) translate(123.02499999999999 33.6)"/><use xlink:href="#c" transform="matrix(1,0,0,1,945,688) translate(133.975 33.6)"/><path d="M1073 576.02h-13.75c1.65 5.98-.55 6.85-10.25 6.85V586h33v-3.13c-9.7 0-10.65-.87-9-6.85" stroke="#000" stroke-opacity="0" fill="#7a7a7a"/><path d="M1087 540h-44.3c-1.5 0-2.7 1.33-2.7 2.85v31.33c0 1.47 1.2 2.8 2.7 2.8h44.3c1.5 0 3-1.33 3-2.8v-31.33c0-1.52-1.5-2.85-3-2.85" stroke="#000" stroke-opacity="0" fill="#a0a1a2"/><path d="M1087 540h-44.3c-1.5 0-2.7 1.33-2.7 2.85v31.33c0 1.47 1.2 2.8 2.7 2.8h1.05L1087 540z" stroke="#000" stroke-opacity="0" fill="#fff" fill-opacity=".2"/><path d="M1086 544v28.98h-42V544h42z" stroke="#000" stroke-opacity="0" fill="#59b4d9"/><path d="M1049 583h33v3h-33v-3z" stroke="#000" stroke-opacity="0" fill="#a0a1a2"/><path d="M1065.5 542.12c0 .36-.3.7-.7.7-.4 0-.7-.34-.7-.7 0-.42.3-.74.7-.74.4 0 .7.32.7.74" stroke="#000" stroke-opacity="0" fill="#b8d432"/><path d="M1066.7 551.82l-.5.32-.45-.78c-.15-.32-.2-.6-.1-.87.1-.24.3-.38.6-.38h.05c.25.05.55.32.65.6.1.27.1.92-.25 1.1z" stroke="#000" stroke-opacity="0" fill="#fff" fill-opacity=".4"/><path d="M1061.75 567.37c0-.05-2.55-4.1-2.4-4.83 1.2-5.66 2.6-6.5 3.15-7.68.5-1.2.2-2.3.8-2.35.65 0 2.45.15 2.9.3.45.13 1.1.6 1.45 1.6.45.87.9 1.75 1.05 2.8.05.1.05.2.15.23 1.15 1.3 1.4 2.9 1.3 4.56 0 .4-.05 1.05-.1 1.28-.05.18-1.65 5.38-4.2 5.3-2.5-.06-3.8-1.03-4.1-1.2z" stroke="#000" stroke-opacity="0" fill="#fbfbf9" fill-opacity=".85"/><path d="M1075.25 566.13c-.95-.05-1.45-.6-1.45-1.1 0-.65.3-1.4-.6-1.48-.9-.1-2.75-.18-3.25-.27-1.05-.2-1.1.23-1.15.55 0 .14.15 1.6 0 2.16 0 .22 0 .5-.05.73-.1.64-.15 1.33-.25 1.97v.97c.75 1.15 2.25 1.2 3.2.23.9-.92 1.95-1.52 3.05-2.07.35-.14.65-.37.8-.83.15-.46 0-.83-.3-.87z" stroke="#000" stroke-opacity="0" fill="#ff8c00" fill-opacity=".85"/><path d="M1063 565.58c-.1.64-.8 1.2-1.15 1.15-.2-.14-.8-.92-.9-1.1-.4-.56-2.05-2.95-2.55-2.77-.15 0-.25.14-.3.23-.05 0-.1.04-.1.04-.25-.55-.25-1.06.05-1.57.6-1.15.9-2.3 1.2-3.54.1-.4.35-.73.6-1.1.5-.6.5-1.24 1-1.84.3-.43.6-.84.55-1.35-.05-1.42-.25-2.85-.2-4.27.05-1.43 1.3-2.63 2.7-3.13 1.4-.5 2.8-.23 3.95.78.9.83 1.3 1.9 1.35 3.08 0 .2.05.43 0 .66-.1 2.25.85 4.1 2.3 5.7 1.35 1.56 1.9 3.45 2.05 5.47 0 .56-.15 1.02-.4 1.52-.3.7-.7 1.1-1.1 1.3-.4.17-1.95.27-1.65-.75.15-.5.15-.7-.45-.82l.15-1.25c.1-1.7-.2-3-1.5-4.18-.35-.37 0-.46 0-.78-.05-.88-.55-1.8-1.05-2.67-.05-.2-.1-.32-.25-.46.05-.14-.05-.23-.1-.32.1-.28.2-.56.15-.88 0-.27-2.65-.37-3-.23-.15-.03-1.55-.13-1.55-.08-.2.14-.35.32-.4.55-.05.23.3.7.35.74-.05.33-.05.6-.05.93-.05.1-.1.23-.1.32-.25.37-.45.7-.7 1.06-.2.33-.4.65-.45 1.02-.15.4.4.92-.1 1.38-.5.5-1 2.7-1 3.27 0 .55 1 1.88 1.4 2.25.75.7 1.4.97 1.25 1.66zM1062.5 567.74c1.1.32 4.1.4 5.6-1.06.25-.23.45-.46.7-.7.05.24 0 .47 0 .75-.15.64-.2 1.33-.3 1.97v.97c-1.35-.37-3.4-.5-4-.46-.6.06-1.45.2-1.95.33l-.05-1.8z" stroke="#000" stroke-opacity="0" fill="#1e1e1e" fill-opacity=".85"/><path d="M1073.9 565.16s-.05-.04-.05-.1c0 .06.05.1.05.1zM1073.5 563.78c0-.04-.05-.04-.1-.1.05.06.1.06.1.1z" stroke="#000" stroke-opacity="0" fill="#dda516" fill-opacity=".85"/><path d="M1061.9 566.82c0 .04 0 .04.05.1-.05-.06-.05-.06-.05-.1z" stroke="#000" stroke-opacity="0" fill="#8c5f07" fill-opacity=".85"/><path d="M1073.4 563.7z" stroke="#000" stroke-opacity="0" fill="#e3a906" fill-opacity=".85"/><path d="M1061.45 566.17c-.8-.78-1.4-1.8-1.95-2.9-.3-.6-1.15-1.05-1.5-.13-.35.92-.85 1.3-1.75 1.2-.6-.1-1.2.36-.95 1.2.3.82.6 1.5 0 2.1-.65.6-.35 1.25.5 1.34.9.14 3.2.64 4.55 1.38 1.3.7 2.4-.64 2.5-1.06.35-.96-.6-2.3-1.4-3.13z" stroke="#000" stroke-opacity="0" fill="#ff8c00" fill-opacity=".85"/><path d="M1064.4 556.6c-.75 0-1.25-.68-1.6-1.28 0 0-1.15-1.66-.7-2.53.05-.15.15-.38 1.35-1.12l.2-.18.2-.1.15-.04c.15-.04.35-.14.55-.14h.05l.15.05.35.14 2.9 1.07.1.46c.05.32 0 .64-.1.87l-.1.4-.25.1c-.2.1-.55.47-.85.8-.25.26-.5.54-.8.72-.1.05-.2.14-.3.2-.4.3-.8.6-1.3.6z" stroke="#000" stroke-opacity="0" fill="#1e1e1e" fill-opacity=".85"/><path d="M1066.35 553.06c-.5.46-1.1.83-1.8.83-.05.04-.05.04 0 0 0-.15-.05-.33-.15-.42-.15-.1-.15-.28-.1-.37.1-.54.05-1.05.05-1.6-.15-.05-.45.1-.5.1-.05.04-.1.04-.2.08-.05.05-.1.14-.2.2-.1.03-1.05.63-1.15.86-.3.55.55 1.9.7 2.07 1 1.76 1.55.98 2.5.33.5-.32 1.15-1.33 1.7-1.5.1-.3.2-.57.15-.9-.35.06-.65.06-1 .33z" stroke="#000" stroke-opacity="0" fill="#ff8c00" fill-opacity=".85"/><path d="M1063.95 551.5z" stroke="#000" stroke-opacity="0" fill="#e3a906" fill-opacity=".85"/><path d="M1066.95 552.33c.2.14.4.27.4.55-.4 0-.75.05-1.1.32-.55.5-1.3 1.24-2.1 1.24 0-.27-.35-.64-.25-1.1.15-.55.15-1.24.15-1.84.4-.14.75 0 1.05.1l.45.27.75.27c.2.14.4.14.65.2z" stroke="#000" stroke-opacity="0" fill="#fcd116" fill-opacity=".85"/><path d="M1063 550.53h1v1.02h-1v-1.02zM1066 550.53h1v1.02h-1v-1.02z" stroke="#000" stroke-opacity="0" fill="#fff" fill-opacity=".9"/><path d="M275 1040.34h240v60H275z" fill="none"/><use xlink:href="#d" transform="matrix(1,0,0,1,275,1040.342) translate(56.574999999999996 33.6)"/><path d="M410 880h240v60H410z" fill="none"/><use xlink:href="#e" transform="matrix(1,0,0,1,410,880) translate(100.025 33.6)"/><path d="M530 460h240v60H530z" fill="none"/><use xlink:href="#a" transform="matrix(1,0,0,1,530.0000000000001,460) translate(64.05 33.6)"/><use xlink:href="#b" transform="matrix(1,0,0,1,530.0000000000001,460) translate(108 33.6)"/><use xlink:href="#f" transform="matrix(1,0,0,1,530.0000000000001,460) translate(118.95 33.6)"/><path d="M525 758h240v60H525z" fill="none"/><use xlink:href="#g" transform="matrix(1,0,0,1,525,758) translate(91.5 33.6)"/><path d="M388.85 995.5c-.2 0-.3-.07-.4-.15l-30.25-16.87c-.2-.16-.4-.48-.4-.8 0-.33.2-.65.4-.73l30.04-16.87c.2-.08.6-.08.82 0l30.24 16.95c.2.16.4.48.4.73 0 .4-.2.64-.4.8l-30.04 16.8c-.1.07-.2.15-.4.15" stroke="#000" stroke-opacity="0" fill="#3999c6"/><path d="M384.55 1036.57c-.2 0-.4 0-.5-.08L354 1019.6c-.3-.15-.5-.47-.5-.8V985c0-.34.2-.58.5-.74.3-.16.62-.16.93 0l30.03 16.88c.3.16.4.4.4.72v33.82c0 .32-.1.64-.4.8-.1.1-.3.1-.4.1M393.06 1036.57c-.2 0-.3 0-.52-.08-.3-.18-.4-.5-.4-.82v-33.58c0-.32.1-.64.4-.8l30.03-16.8c.3-.16.62-.16.93 0 .3.16.5.4.5.73v33.58c0 .33-.2.65-.5.8l-30.03 16.9c-.1.07-.3.07-.42.07" stroke="#000" stroke-opacity="0" fill="#59b4d9"/><path d="M393.06 1036.57c-.2 0-.3 0-.52-.08-.3-.18-.4-.5-.4-.82v-33.58c0-.32.1-.64.4-.8l30.03-16.8c.3-.16.62-.16.93 0 .3.16.5.4.5.73v33.58c0 .33-.2.65-.5.8l-30.03 16.9c-.1.07-.3.07-.42.07" stroke="#000" stroke-opacity="0" fill="#fff" fill-opacity=".5"/><path d="M357.08 1040.34c-.5 0-1.03-.16-1.44-.4l-14.04-7.87c-2.36-1.3-4.1-4.18-4.1-6.83V975.1c0-2.65 1.74-5.54 4.1-6.82l14.04-7.88c1.44-.8 3.18-.32 4 1.05.82 1.36.4 3.13-1.02 3.93l-14.05 7.88c-.5.32-1.13 1.28-1.13 1.84v50.14c0 .56.62 1.52 1.13 1.85l14.05 7.86c1.43.8 1.84 2.57 1.02 3.94-.5.96-1.54 1.44-2.56 1.44zM420.42 960c.5 0 1.03.16 1.44.4l14.04 7.88c2.36 1.28 4.1 4.17 4.1 6.82v50.14c0 2.65-1.74 5.54-4.1 6.83l-14.04 7.87c-1.44.8-3.18.32-4-1.04-.82-1.37-.4-3.14 1.02-3.94l14.05-7.87c.5-.34 1.13-1.3 1.13-1.86V975.1c0-.56-.62-1.52-1.13-1.84l-14.05-7.88c-1.43-.8-1.84-2.57-1.02-3.93.5-.97 1.54-1.45 2.56-1.45z" stroke="#000" stroke-opacity="0" fill="#7a7a7a"/><path d="M872.6 647.2c-15-1.44-17.6-7.2-17.6-7.2s-3.4 7.44-25 7.44v30.78c0 3.72 2.3 7.26 5.6 10.26C843 695.32 855 700 855 700s25-9.6 25-21.78v-30.78c-2.75 0-5.2-.12-7.4-.24z" stroke="#000" stroke-opacity="0" stroke-width="3" fill="#0072c6"/><path d="M861.3 659.86l11.3-12.66c-15-1.44-17.6-7.2-17.6-7.2s-3.4 7.44-25 7.44v30.78c0 3.72 2.3 7.26 5.6 10.26l8.45-9.42 17.25-19.2z" stroke="#000" stroke-opacity="0" stroke-width="3" fill="#3999c6" fill-opacity=".4"/><path d="M835.2 669.34v7.32c0 3 1.9 5.76 4.5 8.16 5.85 5.58 15.45 9.18 15.45 9.18v-24.66H835.2z" stroke="#000" stroke-opacity="0" stroke-width="3" fill="#fff" fill-opacity=".3"/><path d="M855 694s19.95-7.68 19.95-17.34v-7.32H855V694zm0-47.88s-2.75 6-19.95 6v17.22H855v-23.22z" stroke="#000" stroke-opacity="0" stroke-width="3" fill="#fff" fill-opacity=".7"/><path d="M868.95 651.88c-11.9-1.2-13.95-5.64-13.95-5.64v23.1h19.95v-17.22c-2.2 0-4.25-.12-6-.24z" stroke="#000" stroke-opacity="0" stroke-width="3" fill="#fff" fill-opacity=".3"/><path d="M1082.6 646.58c-15-1.45-17.6-7.28-17.6-7.28s-3.4 7.53-25 7.53v31.14c0 3.76 2.3 7.34 5.6 10.38C1053 695.27 1065 700 1065 700s25-9.7 25-22.03v-31.14c-2.75 0-5.2-.12-7.4-.25z" stroke="#000" stroke-opacity="0" stroke-width="3" fill="#0072c6"/><path d="M1071.3 659.4l11.3-12.82c-15-1.45-17.6-7.28-17.6-7.28s-3.4 7.53-25 7.53v31.14c0 3.76 2.3 7.34 5.6 10.38l8.45-9.53 17.25-19.43z" stroke="#000" stroke-opacity="0" stroke-width="3" fill="#3999c6" fill-opacity=".4"/><path d="M1045.2 668.98v7.4c0 3.04 1.9 5.83 4.5 8.26 5.85 5.65 15.45 9.3 15.45 9.3v-24.96h-19.95z" stroke="#000" stroke-opacity="0" stroke-width="3" fill="#fff" fill-opacity=".3"/><path d="M1065 693.93s19.95-7.77 19.95-17.54v-7.42H1065v24.95zm0-48.44s-2.75 6.06-19.95 6.06v17.42H1065v-23.5z" stroke="#000" stroke-opacity="0" stroke-width="3" fill="#fff" fill-opacity=".7"/><path d="M1078.95 651.32c-11.9-1.22-13.95-5.7-13.95-5.7v23.36h19.95v-17.42c-2.2 0-4.25-.12-6-.24z" stroke="#000" stroke-opacity="0" stroke-width="3" fill="#fff" fill-opacity=".3"/><path d="M735 586h240v60H735z" fill="none"/><use xlink:href="#h" transform="matrix(1,0,0,1,735,586) translate(82.55 33.6)"/><use xlink:href="#i" transform="matrix(1,0,0,1,735,586) translate(114.5 33.6)"/><path d="M945 586h240v60H945z" fill="none"/><use xlink:href="#h" transform="matrix(1,0,0,1,945,586) translate(82.55 33.6)"/><use xlink:href="#i" transform="matrix(1,0,0,1,945,586) translate(114.5 33.6)"/><path d="M735 688h240v60H735z" fill="none"/><use xlink:href="#a" transform="matrix(1,0,0,1,735,688) translate(79.07499999999999 33.6)"/><use xlink:href="#b" transform="matrix(1,0,0,1,735,688) translate(123.02499999999999 33.6)"/><use xlink:href="#c" transform="matrix(1,0,0,1,735,688) translate(133.975 33.6)"/><path d="M559.58 878.9c.6-.6.48-1.62 0-2.27l-2.88-3-12.9-13.16c-.6-.6-1.44-.6-2.04 0-.6.6-.72 1.62 0 2.27l13.5 13.9c.6.64.6 1.65 0 2.26l-13.74 14.44c-.6.6-.6 1.62 0 2.23.6.65 1.56.5 2.04 0l12.78-13.3.12-.1 3.12-3.27zM500.42 878.9c-.6-.6-.48-1.62 0-2.27l2.88-3 12.9-13.16c.6-.6 1.44-.6 2.04 0 .6.6.72 1.62 0 2.27l-13.26 13.9c-.6.64-.6 1.65 0 2.26l13.5 14.44c.6.6.6 1.62 0 2.23-.6.65-1.56.5-2.04 0l-13.02-13.14-.12-.15-2.88-3.38z" stroke="#000" stroke-opacity="0" fill="#3999c6"/><path d="M521.84 877.78c0 2.38-1.92 4.14-3.96 4.14s-4.2-2-4.2-4.14c0-2.16 1.68-4.14 4.2-4.14 2.4 0 3.96 1.98 3.96 4.14zM533.96 877.78c0 2.38-1.92 4.14-3.96 4.14s-4.2-2-4.2-4.14c0-2.16 1.92-4.14 4.2-4.14 2.28 0 3.96 1.98 3.96 4.14zM546.2 877.78c0 2.27-1.8 4.14-3.96 4.14-2.22 0-3.96-1.87-3.96-4.14 0-2.3 1.74-4.14 3.96-4.14 2.16 0 3.96 1.84 3.96 4.14z" stroke="#000" stroke-opacity="0" fill="#0072c6"/><path d="M667.6 422.2c-15-1.44-17.6-7.2-17.6-7.2s-3.4 7.44-25 7.44v30.78c0 3.72 2.3 7.26 5.6 10.26C638 470.32 650 475 650 475s25-9.6 25-21.78v-30.78c-2.75 0-5.2-.12-7.4-.24z" stroke="#000" stroke-opacity="0" stroke-width="3" fill="#0072c6"/><path d="M656.3 434.86l11.3-12.66c-15-1.44-17.6-7.2-17.6-7.2s-3.4 7.44-25 7.44v30.78c0 3.72 2.3 7.26 5.6 10.26l8.45-9.42 17.25-19.2z" stroke="#000" stroke-opacity="0" stroke-width="3" fill="#3999c6" fill-opacity=".4"/><path d="M630.2 444.34v7.32c0 3 1.9 5.76 4.5 8.16 5.85 5.58 15.45 9.18 15.45 9.18v-24.66H630.2z" stroke="#000" stroke-opacity="0" stroke-width="3" fill="#fff" fill-opacity=".3"/><path d="M650 469s19.95-7.68 19.95-17.34v-7.32H650V469zm0-47.88s-2.75 6-19.95 6v17.22H650v-23.22z" stroke="#000" stroke-opacity="0" stroke-width="3" fill="#fff" fill-opacity=".7"/><path d="M663.95 426.88c-11.9-1.2-13.95-5.64-13.95-5.64v23.1h19.95v-17.22c-2.2 0-4.25-.12-6-.24z" stroke="#000" stroke-opacity="0" stroke-width="3" fill="#fff" fill-opacity=".3"/><path d="M794 531c0-5.52 4.48-10 10-10h100c5.52 0 10 4.48 10 10v192c0 5.52-4.48 10-10 10H804c-5.52 0-10-4.48-10-10z" fill-opacity="0"/><path d="M795 531c0 .55-.45 1-1 1s-1-.45-1-1 .45-1 1-1 1 .45 1 1zm3-7c0 .56-.44 1-1 1-.54 0-1-.44-1-1 0-.54.46-1 1-1 .56 0 1 .46 1 1zm7-3c0 .55-.45 1-1 1s-1-.45-1-1 .45-1 1-1 1 .45 1 1zm7.7 0c0 .55-.46 1-1 1-.56 0-1-.45-1-1s.44-1 1-1c.54 0 1 .45 1 1zm7.68 0c0 .55-.44 1-1 1-.55 0-1-.45-1-1s.45-1 1-1c.56 0 1 .45 1 1zm7.7 0c0 .55-.45 1-1 1-.56 0-1-.45-1-1s.44-1 1-1c.55 0 1 .45 1 1zm7.7 0c0 .55-.46 1-1 1-.56 0-1-.45-1-1s.44-1 1-1c.54 0 1 .45 1 1zm7.68 0c0 .55-.45 1-1 1s-1-.45-1-1 .45-1 1-1 1 .45 1 1zm7.7 0c0 .55-.45 1-1 1-.56 0-1-.45-1-1s.44-1 1-1c.55 0 1 .45 1 1zm7.7 0c0 .55-.46 1-1 1-.57 0-1-.45-1-1s.43-1 1-1c.54 0 1 .45 1 1zm7.68 0c0 .55-.45 1-1 1s-1-.45-1-1 .45-1 1-1 1 .45 1 1zm7.7 0c0 .55-.46 1-1 1-.56 0-1-.45-1-1s.44-1 1-1c.54 0 1 .45 1 1zm7.68 0c0 .55-.44 1-1 1-.55 0-1-.45-1-1s.45-1 1-1c.56 0 1 .45 1 1zm7.7 0c0 .55-.45 1-1 1-.56 0-1-.45-1-1s.44-1 1-1c.55 0 1 .45 1 1zm7.7 0c0 .55-.46 1-1 1-.56 0-1-.45-1-1s.44-1 1-1c.54 0 1 .45 1 1zm7.68 0c0 .55-.45 1-1 1s-1-.45-1-1 .45-1 1-1 1 .45 1 1zm7 3c0 .56-.46 1-1 1-.56 0-1-.44-1-1 0-.54.44-1 1-1 .54 0 1 .46 1 1zm3 7c0 .55-.45 1-1 1s-1-.45-1-1 .45-1 1-1 1 .45 1 1zm0 8c0 .55-.45 1-1 1s-1-.45-1-1 .45-1 1-1 1 .45 1 1zm0 8c0 .55-.45 1-1 1s-1-.45-1-1 .45-1 1-1 1 .45 1 1zm0 8c0 .55-.45 1-1 1s-1-.45-1-1 .45-1 1-1 1 .45 1 1zm0 8c0 .55-.45 1-1 1s-1-.45-1-1 .45-1 1-1 1 .45 1 1zm0 8c0 .55-.45 1-1 1s-1-.45-1-1 .45-1 1-1 1 .45 1 1zm0 8c0 .55-.45 1-1 1s-1-.45-1-1 .45-1 1-1 1 .45 1 1zm0 8c0 .55-.45 1-1 1s-1-.45-1-1 .45-1 1-1 1 .45 1 1zm0 8c0 .55-.45 1-1 1s-1-.45-1-1 .45-1 1-1 1 .45 1 1zm0 8c0 .55-.45 1-1 1s-1-.45-1-1 .45-1 1-1 1 .45 1 1zm0 8c0 .55-.45 1-1 1s-1-.45-1-1 .45-1 1-1 1 .45 1 1zm0 8c0 .55-.45 1-1 1s-1-.45-1-1 .45-1 1-1 1 .45 1 1zm0 8c0 .55-.45 1-1 1s-1-.45-1-1 .45-1 1-1 1 .45 1 1zm0 8c0 .55-.45 1-1 1s-1-.45-1-1 .45-1 1-1 1 .45 1 1zm0 8c0 .55-.45 1-1 1s-1-.45-1-1 .45-1 1-1 1 .45 1 1zm0 8c0 .55-.45 1-1 1s-1-.45-1-1 .45-1 1-1 1 .45 1 1zm0 8c0 .55-.45 1-1 1s-1-.45-1-1 .45-1 1-1 1 .45 1 1zm0 8c0 .55-.45 1-1 1s-1-.45-1-1 .45-1 1-1 1 .45 1 1zm0 8c0 .55-.45 1-1 1s-1-.45-1-1 .45-1 1-1 1 .45 1 1zm0 8c0 .55-.45 1-1 1s-1-.45-1-1 .45-1 1-1 1 .45 1 1zm0 8c0 .55-.45 1-1 1s-1-.45-1-1 .45-1 1-1 1 .45 1 1zm0 8c0 .55-.45 1-1 1s-1-.45-1-1 .45-1 1-1 1 .45 1 1zm0 8c0 .55-.45 1-1 1s-1-.45-1-1 .45-1 1-1 1 .45 1 1zm0 8c0 .55-.45 1-1 1s-1-.45-1-1 .45-1 1-1 1 .45 1 1zm0 8c0 .55-.45 1-1 1s-1-.45-1-1 .45-1 1-1 1 .45 1 1zm-3 7c0 .54-.46 1-1 1-.56 0-1-.46-1-1 0-.56.44-1 1-1 .54 0 1 .44 1 1zm-7 3c0 .55-.45 1-1 1s-1-.45-1-1 .45-1 1-1 1 .45 1 1zm-7.7 0c0 .55-.44 1-1 1-.54 0-1-.45-1-1s.46-1 1-1c.56 0 1 .45 1 1zm-7.68 0c0 .55-.45 1-1 1-.56 0-1-.45-1-1s.44-1 1-1c.55 0 1 .45 1 1zm-7.7 0c0 .55-.44 1-1 1-.55 0-1-.45-1-1s.45-1 1-1c.56 0 1 .45 1 1zm-7.7 0c0 .55-.44 1-1 1-.54 0-1-.45-1-1s.46-1 1-1c.56 0 1 .45 1 1zm-7.68 0c0 .55-.45 1-1 1s-1-.45-1-1 .45-1 1-1 1 .45 1 1zm-7.7 0c0 .55-.44 1-1 1-.55 0-1-.45-1-1s.45-1 1-1c.56 0 1 .45 1 1zm-7.7 0c0 .55-.43 1-1 1-.54 0-1-.45-1-1s.46-1 1-1c.57 0 1 .45 1 1zm-7.68 0c0 .55-.45 1-1 1s-1-.45-1-1 .45-1 1-1 1 .45 1 1zm-7.7 0c0 .55-.44 1-1 1-.54 0-1-.45-1-1s.46-1 1-1c.56 0 1 .45 1 1zm-7.68 0c0 .55-.45 1-1 1-.56 0-1-.45-1-1s.44-1 1-1c.55 0 1 .45 1 1zm-7.7 0c0 .55-.44 1-1 1-.55 0-1-.45-1-1s.45-1 1-1c.56 0 1 .45 1 1zm-7.7 0c0 .55-.44 1-1 1-.54 0-1-.45-1-1s.46-1 1-1c.56 0 1 .45 1 1zm-7.68 0c0 .55-.45 1-1 1s-1-.45-1-1 .45-1 1-1 1 .45 1 1zm-7-3c0 .54-.44 1-1 1-.54 0-1-.46-1-1 0-.56.46-1 1-1 .56 0 1 .44 1 1zm-3-7c0 .55-.45 1-1 1s-1-.45-1-1 .45-1 1-1 1 .45 1 1zm0-8c0 .55-.45 1-1 1s-1-.45-1-1 .45-1 1-1 1 .45 1 1zm0-8c0 .55-.45 1-1 1s-1-.45-1-1 .45-1 1-1 1 .45 1 1zm0-8c0 .55-.45 1-1 1s-1-.45-1-1 .45-1 1-1 1 .45 1 1zm0-8c0 .55-.45 1-1 1s-1-.45-1-1 .45-1 1-1 1 .45 1 1zm0-8c0 .55-.45 1-1 1s-1-.45-1-1 .45-1 1-1 1 .45 1 1zm0-8c0 .55-.45 1-1 1s-1-.45-1-1 .45-1 1-1 1 .45 1 1zm0-8c0 .55-.45 1-1 1s-1-.45-1-1 .45-1 1-1 1 .45 1 1zm0-8c0 .55-.45 1-1 1s-1-.45-1-1 .45-1 1-1 1 .45 1 1zm0-8c0 .55-.45 1-1 1s-1-.45-1-1 .45-1 1-1 1 .45 1 1zm0-8c0 .55-.45 1-1 1s-1-.45-1-1 .45-1 1-1 1 .45 1 1zm0-8c0 .55-.45 1-1 1s-1-.45-1-1 .45-1 1-1 1 .45 1 1zm0-8c0 .55-.45 1-1 1s-1-.45-1-1 .45-1 1-1 1 .45 1 1zm0-8c0 .55-.45 1-1 1s-1-.45-1-1 .45-1 1-1 1 .45 1 1zm0-8c0 .55-.45 1-1 1s-1-.45-1-1 .45-1 1-1 1 .45 1 1zm0-8c0 .55-.45 1-1 1s-1-.45-1-1 .45-1 1-1 1 .45 1 1zm0-8c0 .55-.45 1-1 1s-1-.45-1-1 .45-1 1-1 1 .45 1 1zm0-8c0 .55-.45 1-1 1s-1-.45-1-1 .45-1 1-1 1 .45 1 1zm0-8c0 .55-.45 1-1 1s-1-.45-1-1 .45-1 1-1 1 .45 1 1zm0-8c0 .55-.45 1-1 1s-1-.45-1-1 .45-1 1-1 1 .45 1 1zm0-8c0 .55-.45 1-1 1s-1-.45-1-1 .45-1 1-1 1 .45 1 1zm0-8c0 .55-.45 1-1 1s-1-.45-1-1 .45-1 1-1 1 .45 1 1zm0-8c0 .55-.45 1-1 1s-1-.45-1-1 .45-1 1-1 1 .45 1 1zm0-8c0 .55-.45 1-1 1s-1-.45-1-1 .45-1 1-1 1 .45 1 1z" fill="#0c7cba"/><path d="M1005 530c0-5.52 4.48-10 10-10h100c5.52 0 10 4.48 10 10v192c0 5.52-4.48 10-10 10h-100c-5.52 0-10-4.48-10-10z" fill-opacity="0"/><path d="M1006 530c0 .55-.45 1-1 1s-1-.45-1-1 .45-1 1-1 1 .45 1 1zm3-7c0 .56-.44 1-1 1-.54 0-1-.44-1-1 0-.54.46-1 1-1 .56 0 1 .46 1 1zm7-3c0 .55-.45 1-1 1s-1-.45-1-1 .45-1 1-1 1 .45 1 1zm7.7 0c0 .55-.46 1-1 1-.56 0-1-.45-1-1s.44-1 1-1c.54 0 1 .45 1 1zm7.68 0c0 .55-.44 1-1 1-.55 0-1-.45-1-1s.45-1 1-1c.56 0 1 .45 1 1zm7.7 0c0 .55-.45 1-1 1-.56 0-1-.45-1-1s.44-1 1-1c.55 0 1 .45 1 1zm7.7 0c0 .55-.46 1-1 1-.56 0-1-.45-1-1s.44-1 1-1c.54 0 1 .45 1 1zm7.68 0c0 .55-.45 1-1 1s-1-.45-1-1 .45-1 1-1 1 .45 1 1zm7.7 0c0 .55-.45 1-1 1-.56 0-1-.45-1-1s.44-1 1-1c.55 0 1 .45 1 1zm7.7 0c0 .55-.46 1-1 1-.57 0-1-.45-1-1s.43-1 1-1c.54 0 1 .45 1 1zm7.68 0c0 .55-.45 1-1 1s-1-.45-1-1 .45-1 1-1 1 .45 1 1zm7.7 0c0 .55-.46 1-1 1-.56 0-1-.45-1-1s.44-1 1-1c.54 0 1 .45 1 1zm7.68 0c0 .55-.44 1-1 1-.55 0-1-.45-1-1s.45-1 1-1c.56 0 1 .45 1 1zm7.7 0c0 .55-.45 1-1 1-.56 0-1-.45-1-1s.44-1 1-1c.55 0 1 .45 1 1zm7.7 0c0 .55-.46 1-1 1-.56 0-1-.45-1-1s.44-1 1-1c.54 0 1 .45 1 1zm7.68 0c0 .55-.45 1-1 1s-1-.45-1-1 .45-1 1-1 1 .45 1 1zm7 3c0 .56-.46 1-1 1-.56 0-1-.44-1-1 0-.54.44-1 1-1 .54 0 1 .46 1 1zm3 7c0 .55-.45 1-1 1s-1-.45-1-1 .45-1 1-1 1 .45 1 1zm0 8c0 .55-.45 1-1 1s-1-.45-1-1 .45-1 1-1 1 .45 1 1zm0 8c0 .55-.45 1-1 1s-1-.45-1-1 .45-1 1-1 1 .45 1 1zm0 8c0 .55-.45 1-1 1s-1-.45-1-1 .45-1 1-1 1 .45 1 1zm0 8c0 .55-.45 1-1 1s-1-.45-1-1 .45-1 1-1 1 .45 1 1zm0 8c0 .55-.45 1-1 1s-1-.45-1-1 .45-1 1-1 1 .45 1 1zm0 8c0 .55-.45 1-1 1s-1-.45-1-1 .45-1 1-1 1 .45 1 1zm0 8c0 .55-.45 1-1 1s-1-.45-1-1 .45-1 1-1 1 .45 1 1zm0 8c0 .55-.45 1-1 1s-1-.45-1-1 .45-1 1-1 1 .45 1 1zm0 8c0 .55-.45 1-1 1s-1-.45-1-1 .45-1 1-1 1 .45 1 1zm0 8c0 .55-.45 1-1 1s-1-.45-1-1 .45-1 1-1 1 .45 1 1zm0 8c0 .55-.45 1-1 1s-1-.45-1-1 .45-1 1-1 1 .45 1 1zm0 8c0 .55-.45 1-1 1s-1-.45-1-1 .45-1 1-1 1 .45 1 1zm0 8c0 .55-.45 1-1 1s-1-.45-1-1 .45-1 1-1 1 .45 1 1zm0 8c0 .55-.45 1-1 1s-1-.45-1-1 .45-1 1-1 1 .45 1 1zm0 8c0 .55-.45 1-1 1s-1-.45-1-1 .45-1 1-1 1 .45 1 1zm0 8c0 .55-.45 1-1 1s-1-.45-1-1 .45-1 1-1 1 .45 1 1zm0 8c0 .55-.45 1-1 1s-1-.45-1-1 .45-1 1-1 1 .45 1 1zm0 8c0 .55-.45 1-1 1s-1-.45-1-1 .45-1 1-1 1 .45 1 1zm0 8c0 .55-.45 1-1 1s-1-.45-1-1 .45-1 1-1 1 .45 1 1zm0 8c0 .55-.45 1-1 1s-1-.45-1-1 .45-1 1-1 1 .45 1 1zm0 8c0 .55-.45 1-1 1s-1-.45-1-1 .45-1 1-1 1 .45 1 1zm0 8c0 .55-.45 1-1 1s-1-.45-1-1 .45-1 1-1 1 .45 1 1zm0 8c0 .55-.45 1-1 1s-1-.45-1-1 .45-1 1-1 1 .45 1 1zm0 8c0 .55-.45 1-1 1s-1-.45-1-1 .45-1 1-1 1 .45 1 1zm-3 7c0 .54-.46 1-1 1-.56 0-1-.46-1-1 0-.56.44-1 1-1 .54 0 1 .44 1 1zm-7 3c0 .55-.45 1-1 1s-1-.45-1-1 .45-1 1-1 1 .45 1 1zm-7.7 0c0 .55-.44 1-1 1-.54 0-1-.45-1-1s.46-1 1-1c.56 0 1 .45 1 1zm-7.68 0c0 .55-.45 1-1 1-.56 0-1-.45-1-1s.44-1 1-1c.55 0 1 .45 1 1zm-7.7 0c0 .55-.44 1-1 1-.55 0-1-.45-1-1s.45-1 1-1c.56 0 1 .45 1 1zm-7.7 0c0 .55-.44 1-1 1-.54 0-1-.45-1-1s.46-1 1-1c.56 0 1 .45 1 1zm-7.68 0c0 .55-.45 1-1 1s-1-.45-1-1 .45-1 1-1 1 .45 1 1zm-7.7 0c0 .55-.44 1-1 1-.55 0-1-.45-1-1s.45-1 1-1c.56 0 1 .45 1 1zm-7.7 0c0 .55-.43 1-1 1-.54 0-1-.45-1-1s.46-1 1-1c.57 0 1 .45 1 1zm-7.68 0c0 .55-.45 1-1 1s-1-.45-1-1 .45-1 1-1 1 .45 1 1zm-7.7 0c0 .55-.44 1-1 1-.54 0-1-.45-1-1s.46-1 1-1c.56 0 1 .45 1 1zm-7.68 0c0 .55-.45 1-1 1-.56 0-1-.45-1-1s.44-1 1-1c.55 0 1 .45 1 1zm-7.7 0c0 .55-.44 1-1 1-.55 0-1-.45-1-1s.45-1 1-1c.56 0 1 .45 1 1zm-7.7 0c0 .55-.44 1-1 1-.54 0-1-.45-1-1s.46-1 1-1c.56 0 1 .45 1 1zm-7.68 0c0 .55-.45 1-1 1s-1-.45-1-1 .45-1 1-1 1 .45 1 1zm-7-3c0 .54-.44 1-1 1-.54 0-1-.46-1-1 0-.56.46-1 1-1 .56 0 1 .44 1 1zm-3-7c0 .55-.45 1-1 1s-1-.45-1-1 .45-1 1-1 1 .45 1 1zm0-8c0 .55-.45 1-1 1s-1-.45-1-1 .45-1 1-1 1 .45 1 1zm0-8c0 .55-.45 1-1 1s-1-.45-1-1 .45-1 1-1 1 .45 1 1zm0-8c0 .55-.45 1-1 1s-1-.45-1-1 .45-1 1-1 1 .45 1 1zm0-8c0 .55-.45 1-1 1s-1-.45-1-1 .45-1 1-1 1 .45 1 1zm0-8c0 .55-.45 1-1 1s-1-.45-1-1 .45-1 1-1 1 .45 1 1zm0-8c0 .55-.45 1-1 1s-1-.45-1-1 .45-1 1-1 1 .45 1 1zm0-8c0 .55-.45 1-1 1s-1-.45-1-1 .45-1 1-1 1 .45 1 1zm0-8c0 .55-.45 1-1 1s-1-.45-1-1 .45-1 1-1 1 .45 1 1zm0-8c0 .55-.45 1-1 1s-1-.45-1-1 .45-1 1-1 1 .45 1 1zm0-8c0 .55-.45 1-1 1s-1-.45-1-1 .45-1 1-1 1 .45 1 1zm0-8c0 .55-.45 1-1 1s-1-.45-1-1 .45-1 1-1 1 .45 1 1zm0-8c0 .55-.45 1-1 1s-1-.45-1-1 .45-1 1-1 1 .45 1 1zm0-8c0 .55-.45 1-1 1s-1-.45-1-1 .45-1 1-1 1 .45 1 1zm0-8c0 .55-.45 1-1 1s-1-.45-1-1 .45-1 1-1 1 .45 1 1zm0-8c0 .55-.45 1-1 1s-1-.45-1-1 .45-1 1-1 1 .45 1 1zm0-8c0 .55-.45 1-1 1s-1-.45-1-1 .45-1 1-1 1 .45 1 1zm0-8c0 .55-.45 1-1 1s-1-.45-1-1 .45-1 1-1 1 .45 1 1zm0-8c0 .55-.45 1-1 1s-1-.45-1-1 .45-1 1-1 1 .45 1 1zm0-8c0 .55-.45 1-1 1s-1-.45-1-1 .45-1 1-1 1 .45 1 1zm0-8c0 .55-.45 1-1 1s-1-.45-1-1 .45-1 1-1 1 .45 1 1zm0-8c0 .55-.45 1-1 1s-1-.45-1-1 .45-1 1-1 1 .45 1 1zm0-8c0 .55-.45 1-1 1s-1-.45-1-1 .45-1 1-1 1 .45 1 1zm0-8c0 .55-.45 1-1 1s-1-.45-1-1 .45-1 1-1 1 .45 1 1z" fill="#0c7cba"/><defs><path d="M190 0L58-211 59 0H30v-248h39L202-35l-2-213h31V0h-41" id="j"/><path d="M185-189c-5-48-123-54-124 2 14 75 158 14 163 119 3 78-121 87-175 55-17-10-28-26-33-46l33-7c5 56 141 63 141-1 0-78-155-14-162-118-5-82 145-84 179-34 5 7 8 16 11 25" id="k"/><path d="M143 4C61 4 22-44 18-125c-5-107 100-154 193-111 17 8 29 25 37 43l-32 9c-13-25-37-40-76-40-61 0-88 39-88 99 0 61 29 100 91 101 35 0 62-11 79-27v-45h-74v-28h105v86C228-13 192 4 143 4" id="l"/><g id="a"><use transform="matrix(0.05,0,0,0.05,0,0)" xlink:href="#j"/><use transform="matrix(0.05,0,0,0.05,12.950000000000001,0)" xlink:href="#k"/><use transform="matrix(0.05,0,0,0.05,24.950000000000003,0)" xlink:href="#l"/></g><path d="M16-82v-28h88v28H16" id="m"/><use transform="matrix(0.05,0,0,0.05,0,0)" xlink:href="#m" id="b"/><path d="M137 0h-34L2-248h35l83 218 83-218h36" id="n"/><path d="M240 0l2-218c-23 76-54 145-80 218h-23L58-218 59 0H30v-248h44l77 211c21-75 51-140 76-211h43V0h-30" id="o"/><g id="c"><use transform="matrix(0.05,0,0,0.05,0,0)" xlink:href="#n"/><use transform="matrix(0.05,0,0,0.05,12,0)" xlink:href="#o"/></g><path d="M233-177c-1 41-23 64-60 70L243 0h-38l-65-103H63V0H30v-248c88 3 205-21 203 71zM63-129c60-2 137 13 137-47 0-61-80-42-137-45v92" id="p"/><path d="M100-194c63 0 86 42 84 106H49c0 40 14 67 53 68 26 1 43-12 49-29l28 8c-11 28-37 45-77 45C44 4 14-33 15-96c1-61 26-98 85-98zm52 81c6-60-76-77-97-28-3 7-6 17-6 28h103" id="q"/><path d="M135-143c-3-34-86-38-87 0 15 53 115 12 119 90S17 21 10-45l28-5c4 36 97 45 98 0-10-56-113-15-118-90-4-57 82-63 122-42 12 7 21 19 24 35" id="r"/><path d="M100-194c62-1 85 37 85 99 1 63-27 99-86 99S16-35 15-95c0-66 28-99 85-99zM99-20c44 1 53-31 53-75 0-43-8-75-51-75s-53 32-53 75 10 74 51 75" id="s"/><path d="M84 4C-5 8 30-112 23-190h32v120c0 31 7 50 39 49 72-2 45-101 50-169h31l1 190h-30c-1-10 1-25-2-33-11 22-28 36-60 37" id="t"/><path d="M114-163C36-179 61-72 57 0H25l-1-190h30c1 12-1 29 2 39 6-27 23-49 58-41v29" id="u"/><path d="M96-169c-40 0-48 33-48 73s9 75 48 75c24 0 41-14 43-38l32 2c-6 37-31 61-74 61-59 0-76-41-82-99-10-93 101-131 147-64 4 7 5 14 7 22l-32 3c-4-21-16-35-41-35" id="v"/><path d="M115-194c55 1 70 41 70 98S169 2 115 4C84 4 66-9 55-30l1 105H24l-1-265h31l2 30c10-21 28-34 59-34zm-8 174c40 0 45-34 45-75s-6-73-45-74c-42 0-51 32-51 76 0 43 10 73 51 73" id="w"/><g id="d"><use transform="matrix(0.05,0,0,0.05,0,0)" xlink:href="#p"/><use transform="matrix(0.05,0,0,0.05,12.950000000000001,0)" xlink:href="#q"/><use transform="matrix(0.05,0,0,0.05,22.950000000000003,0)" xlink:href="#r"/><use transform="matrix(0.05,0,0,0.05,31.950000000000003,0)" xlink:href="#s"/><use transform="matrix(0.05,0,0,0.05,41.95,0)" xlink:href="#t"/><use transform="matrix(0.05,0,0,0.05,51.95,0)" xlink:href="#u"/><use transform="matrix(0.05,0,0,0.05,57.900000000000006,0)" xlink:href="#v"/><use transform="matrix(0.05,0,0,0.05,66.9,0)" xlink:href="#q"/><use transform="matrix(0.05,0,0,0.05,76.9,0)" xlink:href="#l"/><use transform="matrix(0.05,0,0,0.05,90.9,0)" xlink:href="#u"/><use transform="matrix(0.05,0,0,0.05,96.85000000000001,0)" xlink:href="#s"/><use transform="matrix(0.05,0,0,0.05,106.85000000000001,0)" xlink:href="#t"/><use transform="matrix(0.05,0,0,0.05,116.85000000000001,0)" xlink:href="#w"/></g><path d="M59-47c-2 24 18 29 38 22v24C64 9 27 4 27-40v-127H5v-23h24l9-43h21v43h35v23H59v120" id="x"/><g id="e"><use transform="matrix(0.05,0,0,0.05,0,0)" xlink:href="#n"/><use transform="matrix(0.05,0,0,0.05,12,0)" xlink:href="#j"/><use transform="matrix(0.05,0,0,0.05,24.950000000000003,0)" xlink:href="#q"/><use transform="matrix(0.05,0,0,0.05,34.95,0)" xlink:href="#x"/></g><path d="M115-194c53 0 69 39 70 98 0 66-23 100-70 100C84 3 66-7 56-30L54 0H23l1-261h32v101c10-23 28-34 59-34zm-8 174c40 0 45-34 45-75 0-40-5-75-45-74-42 0-51 32-51 76 0 43 10 73 51 73" id="y"/><path d="M117-194c89-4 53 116 60 194h-32v-121c0-31-8-49-39-48C34-167 62-67 57 0H25l-1-190h30c1 10-1 24 2 32 11-22 29-35 61-36" id="z"/><g id="f"><use transform="matrix(0.05,0,0,0.05,0,0)" xlink:href="#k"/><use transform="matrix(0.05,0,0,0.05,12,0)" xlink:href="#t"/><use transform="matrix(0.05,0,0,0.05,22,0)" xlink:href="#y"/><use transform="matrix(0.05,0,0,0.05,32,0)" xlink:href="#z"/><use transform="matrix(0.05,0,0,0.05,42,0)" xlink:href="#q"/><use transform="matrix(0.05,0,0,0.05,52,0)" xlink:href="#x"/></g><g id="g"><use transform="matrix(0.05,0,0,0.05,0,0)" xlink:href="#k"/><use transform="matrix(0.05,0,0,0.05,12,0)" xlink:href="#t"/><use transform="matrix(0.05,0,0,0.05,22,0)" xlink:href="#y"/><use transform="matrix(0.05,0,0,0.05,32,0)" xlink:href="#z"/><use transform="matrix(0.05,0,0,0.05,42,0)" xlink:href="#q"/><use transform="matrix(0.05,0,0,0.05,52,0)" xlink:href="#x"/></g><g id="h"><use transform="matrix(0.05,0,0,0.05,0,0)" xlink:href="#n"/><use transform="matrix(0.05,0,0,0.05,12,0)" xlink:href="#o"/></g><path d="M30 0v-248h33v221h125V0H30" id="A"/><path d="M24-231v-30h32v30H24zM24 0v-190h32V0H24" id="B"/><path d="M141 0L90-78 38 0H4l68-98-65-92h35l48 74 47-74h35l-64 92 68 98h-35" id="C"/><g id="i"><use transform="matrix(0.05,0,0,0.05,0,0)" xlink:href="#A"/><use transform="matrix(0.05,0,0,0.05,10,0)" xlink:href="#B"/><use transform="matrix(0.05,0,0,0.05,13.949999999999998,0)" xlink:href="#z"/><use transform="matrix(0.05,0,0,0.05,23.95,0)" xlink:href="#t"/><use transform="matrix(0.05,0,0,0.05,33.95,0)" xlink:href="#C"/></g></defs></g></svg>